<svg width="22" height="23" viewBox="0 0 22 23" fill="none" xmlns="http://www.w3.org/2000/svg">
<g clip-path="url(#clip0_279_1055)">
<path d="M14.6284 0.978516C14.6775 0.978516 14.7265 0.978516 14.7784 0.978516C14.8987 2.4653 14.3312 3.57623 13.6415 4.38072C12.9648 5.17966 12.0381 5.95453 10.5393 5.83696C10.4393 4.37146 11.0077 3.34293 11.6965 2.54029C12.3353 1.79227 13.5064 1.12664 14.6284 0.978516Z" fill="black"/>
<path d="M19.1656 16.4537C19.1656 16.4685 19.1656 16.4815 19.1656 16.4953C18.7444 17.7711 18.1436 18.8644 17.4104 19.879C16.741 20.8002 15.9208 22.0398 14.4562 22.0398C13.1907 22.0398 12.3501 21.226 11.0531 21.2038C9.68112 21.1816 8.92662 21.8843 7.6722 22.0611C7.5287 22.0611 7.38521 22.0611 7.24449 22.0611C6.32335 21.9278 5.57996 21.1983 5.03838 20.541C3.44143 18.5987 2.20737 16.0899 1.97778 12.8793C1.97778 12.5645 1.97778 12.2507 1.97778 11.9359C2.07499 9.63817 3.19147 7.76996 4.67548 6.86456C5.45868 6.38316 6.53535 5.97304 7.73422 6.15635C8.24803 6.23596 8.77294 6.41186 9.23305 6.5859C9.66908 6.75347 10.2144 7.05064 10.7309 7.0349C11.0809 7.02472 11.429 6.84234 11.7817 6.71366C12.8149 6.34057 13.8276 5.91287 15.1626 6.11376C16.767 6.35631 17.9057 7.06916 18.6092 8.16897C17.2521 9.03271 16.1791 10.3343 16.3624 12.5571C16.5253 14.5762 17.6992 15.7575 19.1656 16.4537Z" fill="black"/>
</g>
<defs>
<clipPath id="clip0_279_1055">
<rect width="21.0826" height="21.0826" fill="white" transform="translate(0.0297852 0.978516)"/>
</clipPath>
</defs>
</svg>
