<svg width="30" height="30" viewBox="0 0 30 30" fill="none" xmlns="http://www.w3.org/2000/svg">
<path fill-rule="evenodd" clip-rule="evenodd" d="M6.56251 11.2498C6.56265 6.58996 10.3402 2.8125 15 2.8125C19.6599 2.8125 23.4375 6.5901 23.4375 11.25L23.4373 11.3115V12.1875C23.4373 14.8414 24.4385 17.2593 26.0855 19.0873C26.2936 19.3184 26.3736 19.6376 26.2991 19.9394C26.2246 20.2413 26.0053 20.4866 25.7136 20.5943C23.7836 21.3068 21.7632 21.8323 19.6745 22.149C19.6831 22.265 19.6875 22.382 19.6875 22.5C19.6875 25.0888 17.5888 27.1875 15 27.1875C12.4112 27.1875 10.3125 25.0888 10.3125 22.5C10.3125 22.382 10.3169 22.265 10.3255 22.1491C8.23667 21.8324 6.21609 21.3069 4.28594 20.5943C3.99423 20.4866 3.7749 20.2413 3.70041 19.9394C3.62592 19.6376 3.70595 19.3184 3.91408 19.0873C5.56099 17.2593 6.56227 14.8414 6.56227 12.1875L6.56251 11.2498ZM12.1903 22.3741C12.1884 22.4158 12.1875 22.4578 12.1875 22.5C12.1875 24.0533 13.4467 25.3125 15 25.3125C16.5533 25.3125 17.8125 24.0533 17.8125 22.5C17.8125 22.4578 17.8116 22.4158 17.8098 22.374C16.884 22.4574 15.9468 22.5 14.9998 22.5C14.0529 22.5 13.1158 22.4574 12.1903 22.3741Z" fill="#0F172A"/>
</svg>
