<svg width="28" height="28" viewBox="0 0 28 28" fill="none" xmlns="http://www.w3.org/2000/svg">
<path fill-rule="evenodd" clip-rule="evenodd" d="M3.5 2.625C3.01675 2.625 2.625 3.01675 2.625 3.5C2.625 3.98325 3.01675 4.375 3.5 4.375V23.625H2.625C2.14175 23.625 1.75 24.0168 1.75 24.5C1.75 24.9832 2.14175 25.375 2.625 25.375H17.5V4.375C17.9832 4.375 18.375 3.98325 18.375 3.5C18.375 3.01675 17.9832 2.625 17.5 2.625H3.5ZM7.875 22.75V20.125C7.875 19.6418 8.26675 19.25 8.75 19.25H12.25C12.7332 19.25 13.125 19.6418 13.125 20.125V22.75C13.125 23.2332 12.7332 23.625 12.25 23.625H8.75C8.26675 23.625 7.875 23.2332 7.875 22.75ZM7 7.875C7 7.39175 7.39175 7 7.875 7H8.75C9.23325 7 9.625 7.39175 9.625 7.875C9.625 8.35825 9.23325 8.75 8.75 8.75H7.875C7.39175 8.75 7 8.35825 7 7.875ZM7.875 10.5C7.39175 10.5 7 10.8918 7 11.375C7 11.8582 7.39175 12.25 7.875 12.25H8.75C9.23325 12.25 9.625 11.8582 9.625 11.375C9.625 10.8918 9.23325 10.5 8.75 10.5H7.875ZM7 14.875C7 14.3918 7.39175 14 7.875 14H8.75C9.23325 14 9.625 14.3918 9.625 14.875C9.625 15.3582 9.23325 15.75 8.75 15.75H7.875C7.39175 15.75 7 15.3582 7 14.875ZM12.25 7C11.7668 7 11.375 7.39175 11.375 7.875C11.375 8.35825 11.7668 8.75 12.25 8.75H13.125C13.6082 8.75 14 8.35825 14 7.875C14 7.39175 13.6082 7 13.125 7H12.25ZM11.375 11.375C11.375 10.8918 11.7668 10.5 12.25 10.5H13.125C13.6082 10.5 14 10.8918 14 11.375C14 11.8582 13.6082 12.25 13.125 12.25H12.25C11.7668 12.25 11.375 11.8582 11.375 11.375ZM12.25 14C11.7668 14 11.375 14.3918 11.375 14.875C11.375 15.3582 11.7668 15.75 12.25 15.75H13.125C13.6082 15.75 14 15.3582 14 14.875C14 14.3918 13.6082 14 13.125 14H12.25Z" fill="#007DD1"/>
<path fill-rule="evenodd" clip-rule="evenodd" d="M19.25 7.875V25.375H25.375C25.8582 25.375 26.25 24.9832 26.25 24.5C26.25 24.0168 25.8582 23.625 25.375 23.625H24.5V9.625C24.9832 9.625 25.375 9.23325 25.375 8.75C25.375 8.26675 24.9832 7.875 24.5 7.875H19.25ZM21 13.125C21 12.6418 21.3918 12.25 21.875 12.25H21.8838C22.367 12.25 22.7588 12.6418 22.7588 13.125V13.1337C22.7588 13.617 22.367 14.0087 21.8838 14.0087H21.875C21.3918 14.0087 21 13.617 21 13.1337V13.125ZM21.875 15.75C21.3918 15.75 21 16.1418 21 16.625V16.6337C21 17.117 21.3918 17.5087 21.875 17.5087H21.8838C22.367 17.5087 22.7588 17.117 22.7588 16.6337V16.625C22.7588 16.1418 22.367 15.75 21.8838 15.75H21.875ZM21 20.125C21 19.6418 21.3918 19.25 21.875 19.25H21.8838C22.367 19.25 22.7588 19.6418 22.7588 20.125V20.1338C22.7588 20.617 22.367 21.0088 21.8838 21.0088H21.875C21.3918 21.0088 21 20.617 21 20.1338V20.125Z" fill="#007DD1"/>
</svg>
