<svg width="36" height="36" viewBox="0 0 36 36" fill="none" xmlns="http://www.w3.org/2000/svg">
<path d="M7.36961 3.98735C10.4816 3.58332 13.6544 3.375 16.8754 3.375C20.0961 3.375 23.2687 3.58328 26.3803 3.98723C29.2637 4.36154 31.3175 6.77905 31.4885 9.57742C30.9997 9.41421 30.4818 9.30594 29.94 9.26098C27.8572 9.08811 25.751 9 23.6249 9C21.499 9 19.3928 9.0881 17.31 9.26097C13.7726 9.55457 11.25 12.547 11.25 15.9123V22.3405C11.25 24.8765 12.682 27.199 14.8992 28.3168L10.9205 32.2955C10.5987 32.6172 10.1149 32.7135 9.69448 32.5394C9.2741 32.3652 9 31.955 9 31.5V25.4558C8.45474 25.3974 7.91126 25.333 7.36962 25.2627C4.35699 24.8716 2.25 22.25 2.25 19.294V9.95607C2.25 7.00008 4.35699 4.37848 7.36961 3.98735Z" fill="white"/>
<path d="M23.6249 11.25C21.5611 11.25 19.5171 11.3355 17.4961 11.5033C15.1871 11.6949 13.5 13.6542 13.5 15.9123V22.3405C13.5 24.6021 15.1919 26.5625 17.5038 26.7512C19.3696 26.9035 21.2551 26.9868 23.1576 26.9986L27.3295 31.1705C27.6513 31.4922 28.1351 31.5885 28.5555 31.4144C28.9759 31.2402 29.25 30.83 29.25 30.375V26.7902C29.4155 26.7778 29.5809 26.7648 29.7461 26.7513C32.058 26.5627 33.75 24.6022 33.75 22.3407V15.9123C33.75 13.6542 32.0629 11.6949 29.7539 11.5033C27.7329 11.3355 25.6888 11.25 23.6249 11.25Z" fill="white"/>
</svg>
