<svg width="54" height="54" viewBox="0 0 54 54" fill="none" xmlns="http://www.w3.org/2000/svg">
<rect x="0.5" y="0.5" width="53" height="53" rx="9.5" stroke="#737373"/>
<path d="M30.6954 19.771H30.0482V15.1029H30.1494C30.6835 15.1029 31.1164 14.6322 31.1164 14.0514C31.1164 13.471 30.6835 13 30.1494 13H24.1068C23.5727 13 23.1395 13.4713 23.1395 14.0514C23.1395 14.6325 23.5727 15.1029 24.1068 15.1029H24.208V19.771H23.5608C21.5947 19.771 20 21.3657 20 23.3318V36.1488C20 38.1149 21.5947 39.709 23.5608 39.709H24.0032V40.4761C24.0032 40.7657 24.4742 41 25.0547 41C25.6351 41 26.1058 40.7657 26.1058 40.4761V39.709H28.1504V40.4761C28.1504 40.7657 28.6214 41 29.2019 41C29.7823 41 30.253 40.7657 30.253 40.4761V39.709H30.6957C32.6621 39.709 34.2562 38.1149 34.2562 36.1488V23.3318C34.2562 21.3654 32.6621 19.771 30.6954 19.771ZM29.2643 23.1744C29.5549 23.1744 29.7899 23.4101 29.7899 23.7009V35.1992C29.7899 35.4895 29.5549 35.7251 29.2643 35.7251C28.9741 35.7251 28.7384 35.4895 28.7384 35.1992V23.7009C28.7384 23.4101 28.9741 23.1744 29.2643 23.1744ZM25.2759 15.1029H28.9803V19.771H25.2759V15.1029ZM24.466 23.7009C24.466 23.4101 24.7013 23.1744 24.9919 23.1744C25.2821 23.1744 25.5178 23.4101 25.5178 23.7009V35.1992C25.5178 35.4895 25.2821 35.7251 24.9919 35.7251C24.7013 35.7251 24.466 35.4895 24.466 35.1992V23.7009Z" fill="#007DD1"/>
</svg>
