<svg width="54" height="54" viewBox="0 0 54 54" fill="none" xmlns="http://www.w3.org/2000/svg">
<rect x="0.5" y="0.5" width="53" height="53" rx="9.5" stroke="#737373"/>
<path d="M15.7839 36.2835H38.9062C40.7127 36.33 41.8677 36.0978 42.371 35.587V26.7583C42.371 26.6894 42.365 26.6234 42.356 26.562C42.2826 26.0662 41.9336 25.6213 41.4722 25.2977L41.4273 25.2663C41.3464 25.2468 41.2775 25.2019 41.2265 25.142C40.7996 24.9008 40.3143 24.76 39.8679 24.76C39.775 24.76 39.6837 24.766 39.5998 24.778H39.5968L39.5953 24.7795C39.5593 24.784 39.5219 24.784 39.4844 24.7795C37.4727 24.4844 35.4518 24.2641 33.4282 24.1174C31.4075 23.9706 29.3764 23.8957 27.3406 23.8957C25.3047 23.8957 23.2738 23.9706 21.2529 24.1174C19.2292 24.2642 17.2084 24.4844 15.1967 24.7795H15.1877C15.1727 24.7825 15.1563 24.7825 15.1413 24.7825C15.1263 24.7825 15.1113 24.7825 15.0963 24.7795H15.0859L15.0844 24.778H15.0814C14.999 24.766 14.9106 24.76 14.8177 24.76C14.3744 24.76 13.886 24.9008 13.4546 25.142C13.4037 25.2034 13.3333 25.2483 13.2509 25.2678L13.2134 25.2933C12.7491 25.6123 12.397 26.0512 12.3236 26.5425C12.3147 26.6025 12.3102 26.6654 12.3102 26.7298V35.5873C12.8105 36.0951 13.9534 36.3273 15.742 36.2853C15.7554 36.2838 15.7689 36.2835 15.7839 36.2835ZM24.9842 33.9977C24.7715 33.9977 24.6007 33.8254 24.6007 33.6142C24.6007 33.4015 24.7715 33.2307 24.9842 33.2307H29.6967C29.9094 33.2307 30.0802 33.4015 30.0802 33.6142C30.0802 33.8254 29.9094 33.9977 29.6967 33.9977H24.9842ZM33.4283 31.7373C33.4313 31.4602 33.4583 31.1875 33.5047 30.9224C33.5541 30.6483 33.629 30.3816 33.7249 30.121C33.7503 30.0551 33.7923 29.9982 33.8432 29.9577V29.9562C35.2693 28.8103 37.5072 27.7303 39.1536 26.9079C39.3228 26.824 39.5251 26.8765 39.6329 27.0248C39.9894 27.4517 40.2591 27.9565 40.4403 28.5362C40.6216 29.1084 40.7159 29.76 40.7264 30.4865C40.7279 30.6408 40.6395 30.7741 40.5092 30.8355C39.8681 31.1681 38.9903 31.4452 37.8728 31.6624C36.7689 31.8781 35.4237 32.0399 33.836 32.1477C33.6248 32.1612 33.4421 32.0024 33.4286 31.7912C33.4271 31.7732 33.4268 31.7553 33.4283 31.7373ZM23.4833 30.6228C23.2721 30.6228 23.0998 30.4521 23.0998 30.2394C23.0998 30.0281 23.2721 29.8559 23.4833 29.8559H31.1976C31.4088 29.8559 31.5811 30.0281 31.5811 30.2394C31.5811 30.4521 31.4088 30.6228 31.1976 30.6228H23.4833ZM21.1764 30.9224C21.2229 31.1876 21.2498 31.4602 21.2528 31.7373C21.2543 31.7553 21.2543 31.7733 21.2528 31.7912C21.2394 32.0024 21.0566 32.1612 20.8454 32.1477C19.2576 32.0399 17.9124 31.8781 16.8086 31.6624C15.6911 31.4452 14.8118 31.1681 14.1722 30.8356C14.0419 30.7742 13.9535 30.6408 13.955 30.4865C13.9655 29.7601 14.0598 29.1084 14.2411 28.5362C14.4223 27.9565 14.6935 27.4517 15.0485 27.0248C15.1563 26.8765 15.3586 26.8241 15.5278 26.908C17.1741 27.7303 19.412 28.8103 20.8382 29.9563V29.9578C20.8891 29.9982 20.9311 30.0551 20.9565 30.1211C21.0524 30.3817 21.127 30.6483 21.1764 30.9224ZM17.9978 37.0503H15.7838L15.7584 37.0488C14.2065 37.0848 13.0576 36.9065 12.3101 36.5141V37.9446C12.3101 38.1798 12.4075 38.3925 12.5618 38.5483C12.716 38.7026 12.9302 38.7985 13.1654 38.7985H17.144C17.3791 38.7985 17.5919 38.7026 17.7476 38.5483C17.9019 38.3925 17.9978 38.1798 17.9978 37.9446L17.9978 37.0503ZM42.371 36.5141C41.6191 36.908 40.4611 37.0863 38.8973 37.0488V37.0503H36.6833V37.9446C36.6833 38.1798 36.7792 38.3925 36.9335 38.5483C37.0893 38.7026 37.302 38.7984 37.5372 38.7984H41.5157C41.7509 38.7984 41.9651 38.7026 42.1194 38.5483C42.2737 38.3925 42.371 38.1798 42.371 37.9446L42.371 36.5141ZM40.7563 24.1217C41.0858 24.2146 41.4079 24.3554 41.703 24.5352C41.9786 24.5651 42.1973 24.5397 42.3561 24.4603C42.5044 24.3854 42.6122 24.2491 42.6811 24.0543C42.6751 23.8251 42.5688 23.6334 42.3636 23.4776C42.0984 23.2754 41.6775 23.1226 41.1008 23.0192C41.0319 23.0387 40.9705 23.1151 40.9165 23.2454C40.8311 23.4492 40.7787 23.7413 40.7563 24.1217ZM22.4856 18.3113H32.1457V16.4224C32.1457 16.2951 32.1038 16.1812 32.0349 16.1019C31.9795 16.0389 31.9076 16 31.8297 16H22.8015C22.7251 16 22.6517 16.0389 22.5963 16.1019C22.5274 16.1812 22.4855 16.2951 22.4855 16.4224L22.4856 18.3113ZM18.0036 20.7814L15.9319 23.9017C17.6815 23.6635 19.4386 23.4807 21.1986 23.3534C23.2478 23.2036 25.2971 23.1287 27.3403 23.1287C29.3834 23.1287 31.4327 23.2036 33.482 23.3534C35.2421 23.4807 36.9992 23.6635 38.7487 23.9017L36.6845 20.7934L36.671 20.7724C36.3774 20.3021 35.9924 19.9261 35.5161 19.646C35.0368 19.3644 34.46 19.1741 33.789 19.0783H20.8916C20.2205 19.1741 19.6438 19.3644 19.1644 19.646C18.6881 19.9261 18.3031 20.3021 18.0095 20.7724L18.0036 20.7814ZM12.9782 24.5353C13.2747 24.3571 13.5968 24.2178 13.9249 24.1249C13.9039 23.7429 13.85 23.4493 13.7646 23.2456C13.7107 23.1153 13.6492 23.0389 13.5803 23.0194C13.0036 23.1227 12.5827 23.2755 12.3176 23.4778C12.1123 23.6335 12.006 23.8253 12 24.0545C12.0689 24.2507 12.1768 24.3855 12.3251 24.4604C12.4838 24.5413 12.7025 24.5653 12.9782 24.5353Z" fill="#007DD1"/>
</svg>
