<svg width="54" height="54" viewBox="0 0 54 54" fill="none" xmlns="http://www.w3.org/2000/svg">
<rect x="0.5" y="0.5" width="53" height="53" rx="9.5" stroke="#737373"/>
<path fill-rule="evenodd" clip-rule="evenodd" d="M17.6355 13H35.5601C36.2851 13 36.9448 13.2968 37.4218 13.7738C37.8996 14.2516 38.1956 14.9105 38.1956 15.6364V38.7736C38.1956 39.4987 37.8988 40.1584 37.4218 40.6362C36.9448 41.1132 36.2851 41.41 35.5601 41.41H17.6355C16.9105 41.41 16.2507 41.1132 15.7738 40.6362C15.2959 40.1584 15 39.4995 15 38.7736V15.6364C15 14.9113 15.2968 14.2516 15.7738 13.7738C16.2507 13.2968 16.9105 13 17.6355 13ZM18.7539 20.4174C18.4937 20.158 18.4937 19.7359 18.7539 19.4765C19.0142 19.2162 19.4354 19.2162 19.6957 19.4765L21.0813 20.8621L23.7255 18.2188C23.9849 17.9594 24.407 17.9594 24.6664 18.2188C24.9267 18.479 24.9267 18.9003 24.6664 19.1605L21.5522 22.2747C21.292 22.5341 20.8707 22.5341 20.6113 22.2747L18.7548 20.4182L18.7539 20.4174ZM25.9302 35.3522C25.5629 35.3522 25.2644 35.0536 25.2644 34.6863C25.2644 34.319 25.5629 34.0205 25.9302 34.0205H33.9708C34.3381 34.0205 34.6366 34.319 34.6366 34.6863C34.6366 35.0536 34.3381 35.3522 33.9708 35.3522H25.9302ZM18.7539 34.333C18.4937 34.0736 18.4937 33.6515 18.7539 33.3921C19.0142 33.1318 19.4354 33.1318 19.6957 33.3921L21.0813 34.7786L23.7255 32.1344C23.9849 31.875 24.407 31.875 24.6664 32.1344C24.9267 32.3946 24.9267 32.8159 24.6664 33.0761L21.5522 36.1903C21.292 36.4497 20.8707 36.4497 20.6113 36.1903L18.7548 34.3338L18.7539 34.333ZM25.9302 28.3944C25.5629 28.3944 25.2644 28.0958 25.2644 27.7285C25.2644 27.3612 25.5629 27.0627 25.9302 27.0627H33.9708C34.3381 27.0627 34.6366 27.3612 34.6366 27.7285C34.6366 28.0967 34.3381 28.3944 33.9708 28.3944H25.9302ZM18.7539 27.3752C18.4937 27.1149 18.4937 26.6937 18.7539 26.4334C19.0142 26.174 19.4354 26.174 19.6957 26.4334L21.0813 27.8199L23.7255 25.1766C23.9849 24.9163 24.407 24.9163 24.6664 25.1766C24.9267 25.436 24.9267 25.8581 24.6664 26.1175L21.5522 29.2317C21.292 29.4919 20.8707 29.4919 20.6113 29.2317L18.7548 27.3752H18.7539ZM25.9302 21.4357C25.5629 21.4357 25.2644 21.1372 25.2644 20.7699C25.2644 20.4026 25.5629 20.104 25.9302 20.104H33.9708C34.3381 20.104 34.6366 20.4026 34.6366 20.7699C34.6366 21.1372 34.3381 21.4357 33.9708 21.4357H25.9302Z" fill="#007DD1"/>
</svg>
