<svg width="54" height="54" viewBox="0 0 54 54" fill="none" xmlns="http://www.w3.org/2000/svg">
<rect x="0.5" y="0.5" width="53" height="53" rx="9.5" stroke="#737373"/>
<path d="M21.2718 13C18.9129 13 17 15.4674 17 18.5108C17 20.9629 18.2436 23.0392 19.9563 23.7557V41H22.5841V23.7557C24.3014 23.0407 25.5404 20.9629 25.5404 18.5108C25.5404 15.4675 23.6276 13 21.2686 13H21.2718Z" fill="#007DD1"/>
<path d="M36.0442 13.4155V18.6557C36.0442 18.9567 35.8013 19.1996 35.5003 19.1996H34.9687C34.6677 19.1996 34.4248 18.9567 34.4248 18.6557V13.4155H33.2239V18.6557C33.2239 18.9567 32.981 19.1996 32.68 19.1996H32.1484C31.8474 19.1996 31.6045 18.9567 31.6045 18.6557V13.4155H30.4036V21.9802C30.4036 22.4263 30.7642 22.7853 31.2088 22.7853C31.9284 22.7853 32.5105 23.3674 32.5105 24.087V40.9981H35.1383V24.087C35.1383 23.3674 35.7204 22.7853 36.44 22.7853C36.8861 22.7853 37.2451 22.4248 37.2451 21.9802L37.2497 13.4155H36.0442Z" fill="#007DD1"/>
</svg>
