<svg width="54" height="54" viewBox="0 0 54 54" fill="none" xmlns="http://www.w3.org/2000/svg">
<rect x="0.5" y="0.5" width="53" height="53" rx="9.5" stroke="#737373"/>
<path d="M18.6469 31.8982C20.3729 31.8982 21.7762 30.4948 21.7762 28.7689C21.7762 27.0443 20.3728 25.6396 18.6469 25.6396C16.921 25.6396 15.5164 27.0443 15.5164 28.7689C15.5164 30.4935 16.921 31.8982 18.6469 31.8982Z" fill="#007DD1"/>
<path d="M23.493 34.8718C22.9424 33.9732 22.0845 33.2389 21.0635 32.8311H21.0227L20.9819 32.8514C20.2872 33.2389 19.4715 33.4646 18.6544 33.4646C17.8169 33.4646 17.0012 33.2402 16.3065 32.8514L16.2657 32.8311H16.2249C14.2861 33.6061 13 35.4645 13 37.5665V37.9132C13 38.4435 13.4283 38.873 13.9598 38.873H20.2466C20.7157 37.1586 21.8794 35.7093 23.4919 34.8718H23.493Z" fill="#007DD1"/>
<path d="M35.703 31.8982C37.4289 31.8982 38.8323 30.4948 38.8323 28.7689C38.8323 27.0443 37.4289 25.6396 35.703 25.6396C33.9772 25.6396 32.5724 27.0443 32.5724 28.7689C32.5724 30.4935 33.9771 31.8982 35.703 31.8982Z" fill="#007DD1"/>
<path d="M38.1302 32.8312H38.0894L38.0486 32.8516C37.3348 33.2391 36.5381 33.4647 35.7007 33.4647C34.8836 33.4647 34.0678 33.2404 33.3731 32.8516L33.3323 32.8312H33.2915C32.2501 33.2391 31.3936 33.9746 30.8416 34.8923C32.4541 35.7094 33.6179 37.1587 34.0869 38.873H40.3939C40.9242 38.873 41.3334 38.4448 41.3334 37.9132V37.5665C41.3334 35.4837 40.0676 33.6061 38.1289 32.8311L38.1302 32.8312Z" fill="#007DD1"/>
<path d="M27.1745 35.0276C28.9004 35.0276 30.3038 33.6242 30.3038 31.8983C30.3038 30.1737 28.9004 28.769 27.1745 28.769C25.4486 28.769 24.0439 30.1737 24.0439 31.8983C24.0439 33.623 25.4486 35.0276 27.1745 35.0276Z" fill="#007DD1"/>
<path d="M29.5925 35.9668L29.5517 35.9502L29.5147 35.9706C28.8137 36.3747 28.0055 36.5888 27.1757 36.5888C26.3459 36.5888 25.5378 36.3759 24.8367 35.9706L24.7985 35.9502L24.7284 35.977C22.8024 36.7316 21.5353 38.5875 21.5353 40.6563V41.0514C21.5353 41.5753 21.9598 41.9998 22.4824 41.9998H31.8665C32.3904 41.9998 32.8136 41.5753 32.8136 41.0514V40.692C32.8136 38.6041 31.5351 36.7289 29.5925 35.9656L29.5925 35.9668Z" fill="#007DD1"/>
<path d="M25.1898 15.6983C25.6347 12.6314 26.62 11 27.1758 11C27.7315 11 28.7168 12.6303 29.1617 15.6983H25.1898Z" fill="#007DD1"/>
<path d="M19.854 15.698C20.3511 14.6222 21.0878 13.656 21.9967 12.8899C22.8571 12.1659 23.8666 11.6267 24.9411 11.3145C24.3854 12.3801 23.9558 13.9097 23.7124 15.6982L19.854 15.698Z" fill="#007DD1"/>
<path d="M25.029 20.9612C24.9805 20.3239 24.9563 19.7005 24.9563 19.0645C24.9563 18.4272 24.9805 17.8051 25.029 17.1665H29.3207C29.3691 17.8051 29.3933 18.4284 29.3933 19.0645C29.3933 19.7005 29.3691 20.3226 29.3207 20.9612H25.029Z" fill="#007DD1"/>
<path d="M30.6377 15.6983C30.3942 13.9112 29.9647 12.3817 29.4089 11.3159C30.4822 11.6269 31.493 12.1674 32.3521 12.8914C33.2609 13.6575 33.9977 14.6224 34.4948 15.6982H30.6365L30.6377 15.6983Z" fill="#007DD1"/>
<path d="M29.4088 26.8135C29.9645 25.7479 30.3941 24.2183 30.6375 22.4312H34.4959C33.9988 23.507 33.262 24.4732 32.3532 25.2392C31.4928 25.9633 30.4833 26.5025 29.4088 26.8135Z" fill="#007DD1"/>
<path d="M19.3453 20.9612C19.1897 20.3239 19.1094 19.6865 19.1094 19.0645C19.1094 18.4424 19.1885 17.8051 19.3453 17.1665H23.5593C23.5108 17.814 23.4866 18.4514 23.4866 19.0645C23.4866 19.6776 23.5108 20.3136 23.5605 20.9612H19.3453Z" fill="#007DD1"/>
<path d="M30.7894 20.9612C30.8378 20.3124 30.8621 19.675 30.8621 19.0645C30.8621 18.4526 30.8378 17.814 30.7894 17.1665H35.0021C35.1576 17.8038 35.2379 18.4412 35.2379 19.0645C35.2379 19.6865 35.1589 20.3239 35.0021 20.9612H30.7894Z" fill="#007DD1"/>
<path d="M27.1745 27.1284C26.6187 27.1284 25.6334 25.4981 25.1886 22.4302H29.1605C28.7156 25.497 27.7302 27.1284 27.1745 27.1284Z" fill="#007DD1"/>
<path d="M24.9412 26.8133C23.8679 26.5022 22.8559 25.9618 21.9967 25.2378C21.0879 24.4717 20.3511 23.5055 19.854 22.4297H23.7124C23.9546 24.2168 24.3855 25.7462 24.9412 26.8133Z" fill="#007DD1"/>
</svg>
