<svg width="54" height="54" viewBox="0 0 54 54" fill="none" xmlns="http://www.w3.org/2000/svg">
<rect x="0.5" y="0.5" width="53" height="53" rx="9.5" stroke="#737373"/>
<path d="M41.4575 28.4312C41.3727 28.3386 41.2533 28.2861 41.1271 28.2861C38.6092 28.2861 36.3366 28.8196 34.3723 29.8733C32.7985 30.717 31.4213 31.8934 30.2818 33.37C28.3465 35.8746 27.7571 38.8971 27.7326 38.9997H31.7505C35.3958 38.9997 38.253 37.2183 40.0143 33.85C41.3235 31.3454 41.5612 28.8766 41.5701 28.7726C41.5813 28.6476 41.54 28.5237 41.4552 28.4311L41.4575 28.4312Z" fill="#007DD1"/>
<path d="M20.202 29.8733C18.2387 28.8196 15.9664 28.2861 13.4471 28.2861C13.3221 28.2861 13.2027 28.3397 13.1168 28.4312C13.0319 28.5239 12.9906 28.6478 13.0018 28.7728C13.0107 28.8766 13.2473 31.3443 14.5577 33.8501C16.3189 37.2197 19.1762 38.9998 22.8215 38.9998H26.8394C26.8159 38.8949 26.2255 35.8745 24.2901 33.3701C23.1494 31.8946 21.7744 30.7182 20.1997 29.8734L20.202 29.8733Z" fill="#007DD1"/>
<path d="M27.2871 17.1251C27.5338 17.1251 27.7336 16.9254 27.7336 16.6787V14.4464C27.7336 14.1998 27.5338 14 27.2871 14C27.0405 14 26.8407 14.1998 26.8407 14.4464V16.6787C26.8407 16.9254 27.0405 17.1251 27.2871 17.1251Z" fill="#007DD1"/>
<path d="M23.8047 18.7321C23.8918 18.8492 24.0257 18.9106 24.1619 18.9106C24.2556 18.9106 24.3494 18.8816 24.4297 18.8213C24.6262 18.674 24.6664 18.3928 24.519 18.1963L23.1797 16.4105C23.0324 16.2141 22.7522 16.1739 22.5547 16.3212C22.3582 16.4686 22.318 16.7498 22.4654 16.9463L23.8047 18.7321Z" fill="#007DD1"/>
<path d="M30.1444 18.8217C30.2248 18.8819 30.3185 18.911 30.4123 18.911C30.5485 18.911 30.6824 18.8496 30.7695 18.7324L32.1088 16.9466C32.2561 16.7502 32.2159 16.4689 32.0195 16.3216C31.8231 16.1742 31.5418 16.2133 31.3945 16.4109L30.0551 18.1966C29.9078 18.3931 29.948 18.6744 30.1444 18.8217Z" fill="#007DD1"/>
<path d="M20.624 29.0877C22.3093 29.9917 23.7816 31.2496 24.9991 32.8244C25.7681 33.8189 26.3362 34.8803 26.7491 35.8368C26.5516 33.4372 26.0326 31.2752 25.1977 29.3891C24.3193 27.4024 23.0927 25.7169 21.5524 24.3777C18.9217 22.0897 16.311 21.6153 16.2016 21.5963C16.0721 21.574 15.9382 21.6097 15.8378 21.6946C15.7373 21.7794 15.6793 21.9044 15.6793 22.0361C15.6793 24.0474 15.8824 25.9157 16.2842 27.6235C17.8468 27.8869 19.3001 28.3757 20.6238 29.0867L20.624 29.0877Z" fill="#007DD1"/>
<path d="M27.8252 35.838C28.2393 34.8804 28.8074 33.8201 29.5753 32.8256C30.7929 31.2496 32.2651 29.9929 33.9503 29.0888C35.274 28.379 36.7272 27.8901 38.2899 27.6256C38.6917 25.9168 38.8949 24.0483 38.8949 22.0371C38.8949 21.9054 38.8368 21.7804 38.7364 21.6955C38.6359 21.6107 38.502 21.575 38.3725 21.5973C38.2632 21.6163 35.6526 22.0907 33.0217 24.3787C31.4815 25.7181 30.2549 27.4034 29.3764 29.3901C28.5416 31.2763 28.0237 33.4383 27.825 35.8389L27.8252 35.838Z" fill="#007DD1"/>
<path d="M26.0148 29.0284C26.574 30.2941 26.9992 31.6826 27.2872 33.1749C27.5751 31.6826 27.9993 30.2953 28.5596 29.0284C29.2705 27.4212 30.2003 25.9971 31.3275 24.7782C30.9793 23.6733 30.4201 22.5538 29.6623 21.4566C28.6399 19.9767 27.6265 19.0615 27.5841 19.0235C27.4144 18.8717 27.1577 18.8717 26.9881 19.0235C26.9457 19.0615 25.9322 19.9756 24.9099 21.4566C24.1532 22.5527 23.5928 23.6733 23.2446 24.7782C24.3741 25.997 25.3016 27.4201 26.0126 29.0284H26.0148Z" fill="#007DD1"/>
<path d="M27.2157 35.8689C27.2392 35.8734 27.2626 35.8756 27.2871 35.8756C27.3106 35.8756 27.334 35.8734 27.3586 35.8689L27.2871 35.8511L27.2157 35.8689Z" fill="#007DD1"/>
</svg>
