<svg width="22" height="23" viewBox="0 0 22 23" fill="none" xmlns="http://www.w3.org/2000/svg">
<path d="M20.6535 11.7246C20.6535 10.9663 20.5907 10.4128 20.4549 9.83893H11.6182V13.2619H16.8051C16.7006 14.1125 16.1359 15.3936 14.8809 16.2544L14.8633 16.369L17.6573 18.4902L17.8509 18.5091C19.6287 16.9001 20.6535 14.5327 20.6535 11.7246Z" fill="#4285F4"/>
<path d="M11.6174 20.7435C14.1585 20.7435 16.2919 19.9235 17.8501 18.5093L14.8801 16.2545C14.0854 16.7977 13.0187 17.1769 11.6174 17.1769C9.1285 17.1769 7.01609 15.5679 6.26307 13.344L6.1527 13.3532L3.24747 15.5566L3.20947 15.6601C4.75718 18.6732 7.93629 20.7435 11.6174 20.7435Z" fill="#34A853"/>
<path d="M6.26357 13.3441C6.06488 12.7701 5.94989 12.1552 5.94989 11.5198C5.94989 10.8844 6.06488 10.2695 6.25311 9.69558L6.24785 9.57336L3.30621 7.33453L3.20996 7.3794C2.57208 8.62973 2.20605 10.0338 2.20605 11.5198C2.20605 13.0058 2.57208 14.4098 3.20996 15.6602L6.26357 13.3441Z" fill="#FBBC05"/>
<path d="M11.6174 5.86265C13.3848 5.86265 14.5769 6.61078 15.2567 7.23598L17.9129 4.69435C16.2816 3.20832 14.1586 2.2962 11.6174 2.2962C7.93632 2.2962 4.75719 4.36638 3.20947 7.37941L6.25263 9.69559C7.01611 7.47168 9.12854 5.86265 11.6174 5.86265Z" fill="#EB4335"/>
</svg>
