<svg width="172" height="134" viewBox="0 0 172 134" fill="none" xmlns="http://www.w3.org/2000/svg">
<rect width="172" height="134" rx="8" fill="#F2F2F7"/>
<path d="M100.586 74.5546C100.694 75.8964 100.393 76.9212 99.6835 77.6288C98.9832 78.3365 97.9057 78.6903 96.4512 78.6903H75.1717C73.9686 78.6903 73.0527 78.3549 72.4242 77.684C71.8047 77.0131 71.477 76.0343 71.4411 74.7476L76.4916 70.1432C76.7699 69.8858 77.0483 69.6974 77.3266 69.5779C77.6049 69.4493 77.9057 69.3849 78.229 69.3849C78.5342 69.3849 78.8395 69.4539 79.1448 69.5917C79.459 69.7204 79.7598 69.9088 80.0471 70.1569L82.5253 72.4454L88.5993 66.8897C88.9136 66.614 89.2368 66.4118 89.569 66.2831C89.9012 66.1453 90.2514 66.0764 90.6195 66.0764C90.9787 66.0764 91.3288 66.1453 91.67 66.2831C92.0112 66.421 92.33 66.6324 92.6263 66.9173L100.586 74.5546ZM80.734 67.3446C80.1324 67.3446 79.5847 67.193 79.0909 66.8897C78.5971 66.5864 78.202 66.182 77.9057 65.6766C77.6094 65.1619 77.4613 64.5967 77.4613 63.9809C77.4613 63.3743 77.6094 62.8183 77.9057 62.3128C78.202 61.7982 78.5971 61.3892 79.0909 61.0859C79.5847 60.7826 80.1324 60.631 80.734 60.631C81.3356 60.631 81.8788 60.7826 82.3636 61.0859C82.8575 61.3892 83.2525 61.7982 83.5488 62.3128C83.8451 62.8183 83.9933 63.3743 83.9933 63.9809C83.9933 64.5967 83.8451 65.1619 83.5488 65.6766C83.2525 66.182 82.8575 66.5864 82.3636 66.8897C81.8788 67.193 81.3356 67.3446 80.734 67.3446ZM74.5657 80C73.0752 80 71.9394 79.6048 71.1582 78.8144C70.3861 78.024 70 76.8798 70 75.3818V58.632C70 57.1156 70.3861 55.9668 71.1582 55.1856C71.9394 54.3952 73.0752 54 74.5657 54H97.4478C98.9383 54 100.07 54.3952 100.842 55.1856C101.614 55.976 102 57.1248 102 58.632V75.3818C102 76.8798 101.614 78.024 100.842 78.8144C100.07 79.6048 98.9383 80 97.4478 80H74.5657ZM74.8081 76.9258H97.1919C97.7755 76.9258 98.2245 76.7741 98.5387 76.4708C98.853 76.1584 99.0101 75.685 99.0101 75.0509V58.9491C99.0101 58.315 98.853 57.8416 98.5387 57.5292C98.2245 57.2167 97.7755 57.0604 97.1919 57.0604H74.8081C74.2155 57.0604 73.7621 57.2167 73.4478 57.5292C73.1425 57.8416 72.9899 58.315 72.9899 58.9491V75.0509C72.9899 75.685 73.1425 76.1584 73.4478 76.4708C73.7621 76.7741 74.2155 76.9258 74.8081 76.9258Z" fill="#3C3C3C" fill-opacity="0.18"/>
</svg>
