<svg width="28" height="28" viewBox="0 0 28 28" fill="none" xmlns="http://www.w3.org/2000/svg">
<path d="M10.5 3.5H5.83333C5.21449 3.5 4.621 3.74583 4.18342 4.18342C3.74583 4.621 3.5 5.21449 3.5 5.83333V10.5C3.5 11.1188 3.74583 11.7123 4.18342 12.1499C4.621 12.5875 5.21449 12.8333 5.83333 12.8333H10.5C11.1188 12.8333 11.7123 12.5875 12.1499 12.1499C12.5875 11.7123 12.8333 11.1188 12.8333 10.5V5.83333C12.8333 5.21449 12.5875 4.621 12.1499 4.18342C11.7123 3.74583 11.1188 3.5 10.5 3.5Z" fill="#007DD1"/>
<path d="M22.1667 3.5H17.5C16.8812 3.5 16.2877 3.74583 15.8501 4.18342C15.4125 4.621 15.1667 5.21449 15.1667 5.83333V10.5C15.1667 11.1188 15.4125 11.7123 15.8501 12.1499C16.2877 12.5875 16.8812 12.8333 17.5 12.8333H22.1667C22.7855 12.8333 23.379 12.5875 23.8166 12.1499C24.2542 11.7123 24.5 11.1188 24.5 10.5V5.83333C24.5 5.21449 24.2542 4.621 23.8166 4.18342C23.379 3.74583 22.7855 3.5 22.1667 3.5Z" fill="#007DD1"/>
<path d="M10.5 15.1665H5.83333C5.21449 15.1665 4.621 15.4123 4.18342 15.8499C3.74583 16.2875 3.5 16.881 3.5 17.4998V22.1665C3.5 22.7853 3.74583 23.3788 4.18342 23.8164C4.621 24.254 5.21449 24.4998 5.83333 24.4998H10.5C11.1188 24.4998 11.7123 24.254 12.1499 23.8164C12.5875 23.3788 12.8333 22.7853 12.8333 22.1665V17.4998C12.8333 16.881 12.5875 16.2875 12.1499 15.8499C11.7123 15.4123 11.1188 15.1665 10.5 15.1665Z" fill="#007DD1"/>
<path d="M22.1667 15.1665H17.5C16.8812 15.1665 16.2877 15.4123 15.8501 15.8499C15.4125 16.2875 15.1667 16.881 15.1667 17.4998V22.1665C15.1667 22.7853 15.4125 23.3788 15.8501 23.8164C16.2877 24.254 16.8812 24.4998 17.5 24.4998H22.1667C22.7855 24.4998 23.379 24.254 23.8166 23.8164C24.2542 23.3788 24.5 22.7853 24.5 22.1665V17.4998C24.5 16.881 24.2542 16.2875 23.8166 15.8499C23.379 15.4123 22.7855 15.1665 22.1667 15.1665Z" fill="#007DD1"/>
</svg>
