<svg width="31" height="32" viewBox="0 0 31 32" fill="none" xmlns="http://www.w3.org/2000/svg">
<circle cx="15.5" cy="15.5" r="14.5" transform="matrix(1 0 0 -1 0 31.8239)" stroke="#007DD1" stroke-width="2"/>
<path d="M25.7531 26.5769C27.1901 25.1398 27.6267 22.7223 26.8607 19.7433C26.1011 16.7895 24.1917 13.4767 21.2694 10.5544C18.3471 7.63213 15.0343 5.72275 12.0805 4.96316C9.10148 4.19713 6.68406 4.63374 5.24696 6.07078C3.80987 7.50787 3.3733 9.92526 4.13934 12.9043C4.89892 15.8582 6.80829 19.1709 9.73059 22.0932C12.6529 25.0155 15.9656 26.9249 18.9195 27.6845C21.8986 28.4505 24.316 28.014 25.7531 26.5769Z" stroke="#007DD1" stroke-width="2"/>
<path d="M5.24686 26.577C6.68395 28.0141 9.10138 28.4507 12.0804 27.6846C15.0342 26.925 18.347 25.0157 21.2693 22.0934C24.1916 19.1711 26.101 15.8583 26.8606 12.9044C27.6266 9.92544 27.19 7.50801 25.753 6.07092C24.3159 4.63383 21.8985 4.19726 18.9194 4.9633C15.9655 5.72288 12.6528 7.63225 9.73049 10.5546C6.80819 13.4769 4.89882 16.7896 4.13924 19.7435C3.3732 22.7225 3.80977 25.1399 5.24686 26.577Z" stroke="#007DD1" stroke-width="2"/>
</svg>
