<svg width="28" height="28" viewBox="0 0 28 28" fill="none" xmlns="http://www.w3.org/2000/svg">
<path fill-rule="evenodd" clip-rule="evenodd" d="M8.75 7V7.875H6.43168C5.31221 7.875 4.37339 8.72018 4.2562 9.8335L2.78252 23.8335C2.64656 25.1251 3.65928 26.25 4.958 26.25H23.0422C24.3409 26.25 25.3536 25.1251 25.2177 23.8335L23.744 9.8335C23.6268 8.72018 22.688 7.875 21.5685 7.875H19.25V7C19.25 4.10051 16.8995 1.75 14 1.75C11.1005 1.75 8.75 4.10051 8.75 7ZM14 3.5C12.067 3.5 10.5 5.067 10.5 7V7.875H17.5V7C17.5 5.067 15.933 3.5 14 3.5ZM10.5 13.125C10.5 15.058 12.067 16.625 14 16.625C15.933 16.625 17.5 15.058 17.5 13.125V12.25C17.5 11.7668 17.8918 11.375 18.375 11.375C18.8582 11.375 19.25 11.7668 19.25 12.25V13.125C19.25 16.0245 16.8995 18.375 14 18.375C11.1005 18.375 8.75 16.0245 8.75 13.125V12.25C8.75 11.7668 9.14175 11.375 9.625 11.375C10.1083 11.375 10.5 11.7668 10.5 12.25V13.125Z" fill="#007DD1"/>
</svg>
