<svg width="16" height="17" viewBox="0 0 16 17" fill="none" xmlns="http://www.w3.org/2000/svg">
<path d="M9.38211 1.65534L10.79 4.4943C10.9819 4.8895 11.4939 5.26856 11.9258 5.34115L14.4775 5.7686C16.1094 6.04282 16.4933 7.23647 15.3175 8.414L13.3337 10.4142C12.9977 10.7529 12.8137 11.4062 12.9177 11.874L13.4857 14.35C13.9336 16.3098 12.9017 17.068 11.1819 16.0437L8.79017 14.6162C8.35822 14.3581 7.6463 14.3581 7.20635 14.6162L4.81461 16.0437C3.1028 17.068 2.06292 16.3018 2.51087 14.35L3.07881 11.874C3.18279 11.4062 2.99881 10.7529 2.66285 10.4142L0.679071 8.414C-0.4888 7.23647 -0.112841 6.04282 1.51898 5.7686L4.0707 5.34115C4.49465 5.26856 5.00659 4.8895 5.19857 4.4943L6.60642 1.65534C7.37433 0.114886 8.62219 0.114886 9.38211 1.65534Z" fill="#EFD700"/>
</svg>
